<svg xmlns="http://www.w3.org/2000/svg" width="72" height="24" viewBox="0 0 72 24">
    <path
       style="fill:#fab400"
       d="m 11.977339,2.499 c -0.36,0 -0.72,0.19875 -0.875,0.59375 L 9.1648392,7.874 c -0.13,0.332 -0.43625,0.56275 -0.78125,0.59375 l -5.5312495,0.5 c -0.82,0.078 -1.14625,1.1335 -0.53125,1.6875 l 4.1562505,3.625 c 0.27,0.232 0.35925,0.5895 0.28125,0.9375 l -1.21875,5.09375 c -0.15,0.633 0.33125,1.1875 0.90625,1.1875 0.16,0 0.343,-0.032 0.5,-0.125 l 4.5624988,-2.71875 c 0.148,-0.087 0.335,-0.125 0.5,-0.125 0.165,0 0.32175,0.038 0.46875,0.125 l 4.59375,2.71875 c 0.16,0.094 0.34,0.125 0.5,0.125 0.572,0 1.05625,-0.51625 0.90625,-1.15625 l -1.21875,-5.125 c -0.08,-0.348 0.01325,-0.7005 0.28125,-0.9375 l 4.15625,-3.65625 c 0.602,-0.55 0.2575,-1.57725 -0.5625,-1.65625 l -5.5,-0.5 c -0.348,-0.033 -0.63725,-0.26275 -0.78125,-0.59375 l -1.96875,-4.78125 c -0.16,-0.395 -0.54825,-0.59375 -0.90625,-0.59375 z m 0,1.09375 1.9375,4.6875 c 0.286,0.66 0.915,1.1185 1.625,1.1875 l 5.4375,0.5 -4.09375,3.5625 c -0.538,0.476 -0.75475,1.2265 -0.59375,1.9375 l 1.21875,5 -4.53125,-2.65625 c -0.298,-0.176 -0.62275,-0.28125 -0.96875,-0.28125 -0.346,0 -0.701,0.10525 -1,0.28125 l -4.4687488,2.625 1.21875,-5 c 0.159999,-0.707 -0.087,-1.44625 -0.625,-1.90625 l -4.0625005,-3.5625 5.3749995,-0.5 c 0.73,-0.066 1.37,-0.56275 1.6249998,-1.21875 l 1.90625,-4.65625 z"/>
    <path
       style="fill:#fab400"
       d="m 35.974275,2.499 c -0.359375,0 -0.68775,0.19875 -0.84375,0.59375 L 33.161775,7.874 c -0.13,0.332 -0.43525,0.56275 -0.78125,0.59375 L 26.849275,8.999 c -0.82,0.078 -1.14625,1.10225 -0.53125,1.65625 l 4.15625,3.625 c 0.27,0.232 0.3905,0.5895 0.3125,0.9375 l -1.25,5.125 c -0.19,0.808 0.67925,1.45925 1.40625,1.03125 l 4.59375,-2.6875 c 0.296,-0.174 0.6415,-0.174 0.9375,0 l 4.59375,2.6875 c 0.73,0.427 1.59825,-0.21325 1.40625,-1.03125 l -1.21875,-5.125 c -0.08,-0.348 0.0445,-0.7005 0.3125,-0.9375 l 4.125,-3.625 c 0.602,-0.55 0.2575,-1.57725 -0.5625,-1.65625 l -5.5,-0.53125 C 39.282525,8.43475 38.993275,8.205 38.849275,7.874 L 36.880525,3.09275 C 36.722025,2.69775 36.33365,2.499 35.974275,2.499 z"/>
    <path
       style="fill:#fab400"
       d="M 59.96875 2.5 C 59.706162 2.5 59.464282 2.6332337 59.28125 2.84375 C 59.213351 2.9218448 59.135691 2.9868676 59.09375 3.09375 L 57.15625 7.875 C 57.02625 8.207 56.72 8.43775 56.375 8.46875 L 50.84375 8.96875 C 50.630208 8.9890625 50.482419 9.0919757 50.34375 9.21875 C 50.282735 9.2745307 50.200566 9.3058901 50.15625 9.375 C 50.152078 9.3810385 50.160279 9.4001199 50.15625 9.40625 C 50.114608 9.4752667 50.055367 9.5478531 50.03125 9.625 C 50.028347 9.6332994 50.03393 9.6478734 50.03125 9.65625 C 49.985269 9.8197566 49.990529 9.9879445 50.03125 10.15625 C 50.033303 10.165902 50.028886 10.177888 50.03125 10.1875 C 50.077123 10.355837 50.166438 10.524675 50.3125 10.65625 L 54.46875 14.28125 C 54.60375 14.39725 54.703688 14.556875 54.75 14.71875 C 54.796312 14.880625 54.789 15.04475 54.75 15.21875 L 53.53125 20.3125 L 53.53125 20.34375 C 53.515241 20.422513 53.497626 20.48738 53.5 20.5625 C 53.500144 20.583591 53.498462 20.6043 53.5 20.625 C 53.504144 20.667785 53.521678 20.70911 53.53125 20.75 C 53.556183 20.866837 53.623474 20.966578 53.6875 21.0625 C 53.700183 21.081501 53.704774 21.107004 53.71875 21.125 C 53.765971 21.187738 53.814559 21.232101 53.875 21.28125 C 53.886443 21.290541 53.894398 21.303737 53.90625 21.3125 C 53.949655 21.344495 53.983003 21.382104 54.03125 21.40625 C 54.140687 21.46165 54.28111 21.490659 54.40625 21.5 C 54.416683 21.500367 54.427001 21.5 54.4375 21.5 C 54.52928 21.503434 54.593697 21.494626 54.6875 21.46875 C 54.772875 21.449125 54.859 21.4215 54.9375 21.375 L 59.53125 18.6875 C 59.67925 18.6005 59.839625 18.5625 60 18.5625 L 60 18.53125 C 60.165 18.53125 60.32175 18.56925 60.46875 18.65625 L 65.0625 21.375 C 65.2225 21.469 65.4025 21.5 65.5625 21.5 C 66.1345 21.5 66.61875 20.98375 66.46875 20.34375 L 65.25 15.21875 C 65.17 14.87075 65.26325 14.51825 65.53125 14.28125 L 69.6875 10.625 C 70.2895 10.075 69.945 9.04775 69.125 8.96875 L 63.625 8.46875 C 63.277 8.43575 62.98775 8.206 62.84375 7.875 L 60.875 3.09375 C 60.71939 2.7095884 60.349602 2.5106059 60 2.5 C 59.990137 2.4997008 59.978573 2.5 59.96875 2.5 z M 60 3.65625 L 61.90625 8.28125 C 62.19225 8.94125 62.82125 9.39975 63.53125 9.46875 L 68.96875 9.96875 L 64.875 13.53125 C 64.337 14.00725 64.12025 14.75775 64.28125 15.46875 L 65.5 20.46875 L 60.96875 17.8125 C 60.67075 17.6365 60.346 17.53125 60 17.53125 L 60 3.65625 z "/>
</svg>
